<svg id="visual" viewBox="0 0 900 600" width="900" height="600" xmlns="http://www.w3.org/2000/svg" xmlns:xlink="http://www.w3.org/1999/xlink" version="1.1"><g transform="translate(934.6424041624789 101.91291330431571)"><path d="M291 -352C408 -248.6 555.1 -186.2 586.4 -91.2C617.6 3.8 533.1 131.4 442.7 225C352.2 318.6 255.8 378.3 164.3 381C72.9 383.7 -13.7 329.5 -143.2 316C-272.6 302.4 -445.1 329.4 -551.5 261.8C-657.9 194.3 -698.2 32 -625.4 -63.3C-552.7 -158.6 -366.7 -187.1 -243.6 -289.3C-120.5 -391.6 -60.3 -567.8 13.4 -583.7C87 -599.7 174 -455.3 291 -352" fill="#fef08a"></path></g></svg>