<svg id="visual" viewBox="0 0 900 600" width="900" height="600" xmlns="http://www.w3.org/2000/svg" xmlns:xlink="http://www.w3.org/1999/xlink" version="1.1"><g transform="translate(481.9764716579025 232.79849958167614)"><path d="M169.2 -217C230.2 -188.5 298.2 -153.7 308.4 -104.4C318.6 -55.1 271.1 8.8 249.2 82.5C227.4 156.3 231.2 239.9 194 302.2C156.7 364.4 78.4 405.2 12.1 388.5C-54.1 371.8 -108.2 297.5 -179.5 246.4C-250.8 195.2 -339.4 167.1 -365.3 112.7C-391.2 58.3 -354.4 -22.5 -299.6 -68.4C-244.8 -114.3 -172 -125.4 -119.1 -156.6C-66.1 -187.7 -33.1 -238.8 10.5 -253.3C54.1 -267.8 108.2 -245.5 169.2 -217" fill="#fef08a"></path></g></svg>